<!-- Generated by IcoMoon.io -->
<svg version="1.1" xmlns="http://www.w3.org/2000/svg" width="36" height="32" viewBox="0 0 36 32">
<title>blochspphere</title>
<path d="M11.276 1.633c0 0.484 0.012 0.677 0.018 0.436 0.012-0.236 0.012-0.635 0-0.877-0.006-0.236-0.018-0.042-0.018 0.442z"></path>
<path d="M12.437 1.21c0.181 0.448 0.181 0.466 0 0.877-0.085 0.181-0.127 0.333-0.103 0.333s0.121-0.175 0.218-0.393l0.163-0.393-0.169-0.393c-0.218-0.496-0.309-0.52-0.109-0.030z"></path>
<path d="M11.578 1.252c-0.133 0.315-0.024 0.805 0.175 0.805 0.042 0 0.042-0.024-0.006-0.073-0.042-0.042-0.073-0.236-0.073-0.442s0.030-0.399 0.073-0.442c0.054-0.054 0.054-0.073-0.006-0.073-0.036 0-0.115 0.097-0.163 0.224z"></path>
<path d="M11.965 1.101c0.097 0.097 0.097 0.786 0 0.889-0.067 0.067-0.060 0.079 0.012 0.054 0.284-0.085 0.266-1.016-0.018-1.016-0.042 0-0.042 0.024 0.006 0.073z"></path>
<path d="M14.427 1.21c-0.048 0.073 0.048 0.109 0.357 0.133l0.23 0.018-0.309 0.393c-0.169 0.218-0.309 0.429-0.309 0.466 0 0.054 0.127 0.079 0.423 0.079 0.502 0 0.575-0.109 0.091-0.133l-0.333-0.018 0.333-0.417c0.181-0.23 0.333-0.454 0.333-0.496 0-0.103-0.756-0.121-0.817-0.024z"></path>
<path d="M13.314 2.214c-0.085 0.188-0.254 0.502-0.381 0.696-0.242 0.381-0.23 0.411 0.115 0.266 0.115-0.048 0.236-0.091 0.266-0.091s0.054 0.2 0.054 0.442v0.448l-0.829 0.073c-1.651 0.139-3.012 0.508-4.464 1.21-1.379 0.665-2.432 1.434-3.539 2.583-2.323 2.414-3.527 5.414-3.527 8.795 0 2.843 0.829 5.341 2.516 7.616 3.466 4.64 9.673 6.273 14.978 3.938 4.253-1.869 7.162-6.091 7.44-10.798l0.036-0.665 0.563-0.018c0.339-0.012 0.557 0.006 0.557 0.042s-0.054 0.2-0.121 0.369c-0.079 0.2-0.097 0.296-0.048 0.266 0.042-0.030 0.194-0.127 0.333-0.224 0.139-0.091 0.436-0.248 0.659-0.351l0.399-0.181-0.508-0.242c-0.272-0.133-0.587-0.308-0.696-0.393-0.248-0.188-0.272-0.181-0.175 0.048 0.206 0.502 0.236 0.472-0.411 0.472h-0.581v-0.411c0-0.224-0.030-0.641-0.061-0.919-0.339-2.777-1.512-5.299-3.388-7.277-2.147-2.268-4.966-3.605-8.118-3.865l-0.835-0.067v-0.448c0-0.242 0.024-0.442 0.054-0.442s0.169 0.042 0.309 0.091c0.145 0.048 0.272 0.079 0.29 0.067 0.012-0.018-0.060-0.151-0.169-0.308-0.103-0.151-0.272-0.454-0.369-0.671-0.097-0.212-0.181-0.387-0.194-0.387-0.006 0-0.079 0.157-0.157 0.339zM13.381 10.399l0.018 6.225-5.42 2.746-0.484-0.067c-0.26-0.042-0.508-0.054-0.538-0.036-0.036 0.018-0.061-0.012-0.061-0.073s-0.073 0.030-0.163 0.194c-0.169 0.327-0.581 0.901-0.684 0.968-0.151 0.091-0.018 0.121 0.593 0.127 0.357 0 0.732 0.024 0.829 0.048 0.169 0.042 0.163 0.024-0.121-0.224l-0.302-0.266 0.514-0.26c0.284-0.139 1.149-0.581 1.918-0.98 0.774-0.399 1.391-0.684 1.373-0.635-0.036 0.103 0.067 0.188 0.157 0.133 0.048-0.030 0.042-0.067-0.006-0.127-0.036-0.048-0.060-0.097-0.048-0.109s0.581-0.302 1.264-0.641c0.684-0.339 1.252-0.641 1.258-0.671 0.030-0.079 0.139-0.067 0.121 0.006-0.024 0.085 0.296 0.278 0.357 0.218 0.024-0.024-0.018-0.097-0.103-0.157-0.151-0.115-0.054-0.115 5.886-0.121 5.099 0 6.031 0.012 6.031 0.085 0 0.048-0.097 0.224-0.218 0.399-0.26 0.381-0.212 0.484 0.079 0.151l0.212-0.242-0.042 0.363c-0.157 1.494-0.339 2.365-0.696 3.388-1.385 3.908-4.718 6.938-8.711 7.918-2.208 0.538-4.591 0.442-6.745-0.272-4.718-1.567-8.076-5.862-8.475-10.864l-0.042-0.496 0.381 0.369c0.272 0.266 0.387 0.345 0.423 0.29s-0.024-0.133-0.181-0.254c-0.133-0.091-0.284-0.236-0.339-0.321s-0.133-0.151-0.175-0.151c-0.127 0-0.151-0.333-0.091-1.107 0.079-0.956 0.157-1.506 0.333-2.25 0.95-4.047 3.938-7.404 7.864-8.832 1.113-0.405 2.492-0.678 3.49-0.69l0.532-0.006 0.012 6.225zM15.177 4.271c2.166 0.315 4.156 1.167 5.904 2.535 1.821 1.422 3.339 3.575 4.071 5.783 0.363 1.095 0.508 1.821 0.647 3.194l0.036 0.387-0.151-0.175c-0.212-0.248-0.254-0.145-0.073 0.175 0.085 0.145 0.157 0.284 0.157 0.302 0 0.024-1.688 0.042-3.75 0.042-3.291 0-3.75-0.012-3.75-0.091 0-0.048-0.024-0.091-0.061-0.091-0.030 0-0.061 0.042-0.061 0.091 0 0.079-0.284 0.091-2.208 0.091-1.216 0-2.208-0.018-2.208-0.036s0.417-0.678 0.926-1.458l0.919-1.422 0.442 0.030c0.351 0.024 0.436 0.018 0.436-0.054 0-0.067-0.091-0.085-0.369-0.085-0.272 0-0.363-0.018-0.345-0.079 0.042-0.181 2.371-3.672 2.444-3.672 0.048 0 0.085-0.054 0.085-0.121 0-0.073-0.042-0.121-0.103-0.121-0.073 0-0.351 0.381-0.829 1.119-0.399 0.617-0.732 1.119-0.75 1.119-0.012 0-0.091-0.054-0.181-0.121-0.103-0.085-0.175-0.103-0.212-0.067-0.079 0.079 0.194 0.315 0.308 0.278 0.048-0.018 0.036 0.036-0.036 0.139-0.067 0.091-0.708 1.077-1.434 2.19-0.72 1.113-1.355 2.069-1.397 2.117-0.073 0.079-0.085-0.103-0.073-1.301l0.018-1.391 0.411-0.018c0.538-0.024 0.526-0.133-0.018-0.133h-0.423v-9.255h0.49c0.272 0 0.78 0.042 1.137 0.097zM7.465 19.448l0.242 0.042-0.327 0.175c-0.175 0.097-0.345 0.175-0.375 0.175-0.024 0-0.048-0.109-0.048-0.242 0-0.224 0.012-0.242 0.139-0.218 0.073 0.018 0.242 0.048 0.369 0.067z"></path>
<path d="M11.391 13.471c-0.079 0.012-0.139 0.054-0.139 0.085 0 0.091 0.98 0.042 1.016-0.054 0.018-0.054-0.079-0.073-0.363-0.067-0.206 0.006-0.442 0.024-0.514 0.036z"></path>
<path d="M9.394 13.592c-0.278 0.036-0.248 0.139 0.036 0.139 0.357 0 0.792-0.073 0.792-0.127s-0.448-0.060-0.829-0.012z"></path>
<path d="M7.834 13.762c-0.030 0.012-0.218 0.036-0.417 0.060-0.236 0.030-0.333 0.060-0.29 0.103 0.085 0.085 0.932-0.018 0.968-0.121 0.018-0.067-0.115-0.091-0.26-0.042z"></path>
<path d="M5.517 14.149c-0.242 0.054-0.442 0.127-0.442 0.157 0.006 0.079 0.012 0.079 0.538-0.018 0.296-0.060 0.436-0.109 0.436-0.169 0-0.097 0.030-0.103-0.532 0.030z"></path>
<path d="M3.539 14.675c-0.423 0.145-0.563 0.23-0.472 0.284 0.091 0.048 0.986-0.284 0.938-0.357-0.030-0.048-0.169-0.024-0.466 0.073z"></path>
<path d="M1.657 15.607c-0.169 0.127-0.327 0.278-0.345 0.327-0.067 0.169 0.060 0.157 0.236-0.030 0.097-0.103 0.266-0.236 0.375-0.309 0.103-0.067 0.181-0.145 0.157-0.175-0.048-0.085-0.097-0.067-0.423 0.188z"></path>
<path d="M14.336 17.198c0 0.097 0.284 0.242 0.375 0.188 0.030-0.024-0.018-0.091-0.115-0.151-0.2-0.133-0.26-0.145-0.26-0.036z"></path>
<path d="M18.147 17.391c0 0.115 0.030 0.212 0.061 0.212 0.036 0 0.061-0.097 0.061-0.212s-0.024-0.212-0.061-0.212c-0.030 0-0.061 0.097-0.061 0.212z"></path>
<path d="M13.496 17.416c0 0.079-0.073 0.194-0.157 0.26-0.218 0.169-0.175 0.653 0.060 0.653 0.060 0 0.091 0.061 0.091 0.188 0 0.103 0.024 0.169 0.060 0.145 0.036-0.018 0.060-0.103 0.060-0.188 0-0.079 0.024-0.145 0.060-0.145 0.030 0 0.103-0.067 0.157-0.151 0.127-0.194 0.067-0.436-0.127-0.526-0.085-0.036-0.157-0.127-0.169-0.224-0.024-0.145-0.024-0.145-0.036-0.012zM13.459 18.256c-0.054 0.061-0.151-0.121-0.151-0.296 0-0.085 0.036-0.188 0.079-0.23 0.060-0.061 0.079-0.018 0.091 0.206 0.012 0.157 0 0.302-0.018 0.321zM13.738 17.827c0.042 0.115 0.042 0.212-0.006 0.315-0.085 0.181-0.097 0.163-0.139-0.194-0.042-0.315 0.042-0.387 0.145-0.121z"></path>
<path d="M15.099 17.585c-0.067 0.073-0.036 0.121 0.115 0.188 0.194 0.091 0.272 0.091 0.272 0.012 0-0.073-0.333-0.248-0.387-0.2z"></path>
<path d="M15.522 18.002c-0.157 0.224-0.030 0.327 0.139 0.115 0.115-0.151 0.121-0.272 0.018-0.272-0.024 0-0.091 0.073-0.157 0.157z"></path>
<path d="M15.849 18.087c0 0.030 0.079 0.097 0.175 0.145 0.145 0.079 0.181 0.079 0.206 0.012 0.018-0.048-0.030-0.109-0.115-0.151-0.188-0.085-0.266-0.085-0.266-0.006z"></path>
<path d="M23.955 18.208c-0.345 0.151-0.532 0.302-0.375 0.302 0.121 0 0.865-0.339 0.865-0.393 0.006-0.097-0.085-0.085-0.49 0.091z"></path>
<path d="M18.147 18.299c0 0.115 0.030 0.212 0.061 0.212 0.036 0 0.061-0.097 0.061-0.212s-0.024-0.212-0.061-0.212c-0.030 0-0.061 0.097-0.061 0.212z"></path>
<path d="M2.916 18.274c0.030 0.085 0.653 0.345 0.853 0.351 0.218 0.012 0.085-0.091-0.302-0.23-0.23-0.079-0.448-0.157-0.496-0.175-0.054-0.018-0.073 0-0.054 0.054z"></path>
<path d="M16.617 18.468c-0.036 0.091 0.278 0.308 0.345 0.242s0.042-0.109-0.139-0.218c-0.139-0.079-0.181-0.085-0.206-0.024z"></path>
<path d="M14.899 18.523c-0.133 0.061-0.194 0.23-0.091 0.23 0.079 0 0.315-0.181 0.315-0.248s-0.054-0.067-0.224 0.018z"></path>
<path d="M11.409 18.553c-0.067 0.073-0.036 0.121 0.127 0.194 0.236 0.109 0.321-0.018 0.091-0.139-0.097-0.048-0.194-0.073-0.218-0.054z"></path>
<path d="M21.971 18.825c-0.357 0.091-0.484 0.145-0.442 0.188 0.091 0.091 0.974-0.121 0.974-0.236 0-0.048-0.006-0.079-0.012-0.079-0.012 0.006-0.242 0.061-0.52 0.127z"></path>
<path d="M4.9 18.892c0 0.061 0.115 0.109 0.351 0.157 0.188 0.036 0.405 0.085 0.484 0.103 0.091 0.030 0.133 0.012 0.133-0.048s-0.121-0.109-0.393-0.157c-0.212-0.042-0.429-0.091-0.484-0.109-0.054-0.024-0.091-0.006-0.091 0.054z"></path>
<path d="M12.195 18.916c-0.018 0.042 0 0.079 0.042 0.079s0.133 0.018 0.212 0.036c0.097 0.030 0.133 0.012 0.133-0.054 0-0.115-0.345-0.175-0.387-0.061z"></path>
<path d="M14.022 18.855c-0.145 0.036-0.139 0.139 0.006 0.139 0.157 0 0.309-0.061 0.309-0.127 0-0.054-0.133-0.061-0.315-0.012z"></path>
<path d="M17.361 18.928c0 0.030 0.073 0.097 0.157 0.157 0.206 0.133 0.339 0.024 0.139-0.115-0.157-0.109-0.296-0.127-0.296-0.042z"></path>
<path d="M13.066 19.025c0 0.061 0.067 0.091 0.212 0.091s0.212-0.030 0.212-0.091c0-0.061-0.067-0.091-0.212-0.091s-0.212 0.030-0.212 0.091z"></path>
<path d="M18.147 19.079c0 0.079-0.018 0.194-0.036 0.242-0.030 0.073-0.012 0.091 0.061 0.061 0.109-0.042 0.139-0.448 0.036-0.448-0.030 0-0.061 0.067-0.061 0.145z"></path>
<path d="M19.769 19.248c-0.478 0.085-0.46 0.2 0.012 0.151 0.466-0.048 0.665-0.103 0.665-0.169s-0.218-0.061-0.677 0.018z"></path>
<path d="M18.178 19.454c-0.067 0.012-0.278 0.036-0.466 0.054-0.375 0.042-0.484 0.151-0.151 0.151 0.43 0 0.829-0.079 0.829-0.157 0-0.048-0.018-0.079-0.042-0.079-0.030 0.006-0.103 0.018-0.169 0.030z"></path>
<path d="M9.013 19.563c0 0.054 0.151 0.091 0.496 0.115 0.272 0.024 0.508 0.024 0.526 0.012 0.073-0.079-0.121-0.139-0.55-0.169-0.363-0.024-0.472-0.012-0.472 0.042z"></path>
<path d="M15.655 19.642c-0.526 0.036-0.423 0.139 0.133 0.139 0.387 0 0.484-0.018 0.484-0.091 0-0.054-0.048-0.085-0.133-0.079-0.079 0.006-0.296 0.018-0.484 0.030z"></path>
<path d="M11.070 19.72c0 0.030 0.145 0.061 0.327 0.061 0.175 0 0.411 0.018 0.514 0.036 0.145 0.030 0.188 0.018 0.188-0.061s-0.079-0.097-0.514-0.097c-0.302 0-0.514 0.024-0.514 0.061z"></path>
<path d="M13.689 19.702c-0.659 0.030-0.647 0.139 0.012 0.139 0.417 0 0.514-0.018 0.514-0.091 0-0.048-0.006-0.085-0.012-0.079-0.012 0.006-0.242 0.024-0.514 0.030z"></path>
<path d="M4.96 21.033c0.006 0.030 0.085 0.157 0.175 0.29l0.175 0.242-0.212 0.284c-0.157 0.218-0.188 0.29-0.115 0.29 0.054 0 0.157-0.097 0.23-0.212 0.079-0.115 0.157-0.212 0.181-0.212 0.018 0 0.097 0.097 0.169 0.212s0.175 0.212 0.224 0.212c0.085 0 0.079-0.018-0.006-0.151-0.315-0.49-0.302-0.43-0.139-0.647 0.224-0.302 0.242-0.351 0.139-0.351-0.048 0-0.151 0.097-0.224 0.218l-0.133 0.224-0.181-0.224c-0.163-0.2-0.29-0.278-0.284-0.175z"></path>
<path d="M7.162 22.079c0 0.484 0.012 0.677 0.018 0.436 0.012-0.236 0.012-0.635 0-0.877-0.006-0.236-0.018-0.042-0.018 0.442z"></path>
<path d="M8.372 21.323c0.024 0.067 0.097 0.26 0.163 0.43l0.121 0.315-0.151 0.411c-0.085 0.23-0.145 0.423-0.133 0.436s0.097-0.175 0.188-0.411l0.163-0.43-0.139-0.375c-0.073-0.206-0.163-0.405-0.194-0.436-0.042-0.042-0.042-0.018-0.018 0.061z"></path>
<path d="M11.155 22.079c0 0.484 0.012 0.677 0.018 0.436 0.012-0.236 0.012-0.635 0-0.877-0.006-0.236-0.018-0.042-0.018 0.442z"></path>
<path d="M12.364 21.323c0.024 0.067 0.097 0.26 0.163 0.43l0.121 0.315-0.151 0.411c-0.085 0.23-0.145 0.423-0.133 0.436s0.097-0.175 0.188-0.411l0.163-0.43-0.139-0.375c-0.073-0.206-0.163-0.405-0.194-0.436-0.042-0.042-0.042-0.018-0.018 0.061z"></path>
<path d="M7.622 21.474c-0.2 0.2-0.145 1.028 0.073 1.028 0.042 0 0.042-0.024-0.006-0.085-0.042-0.054-0.067-0.248-0.054-0.496 0.012-0.315 0.042-0.417 0.127-0.472 0.091-0.054 0.127-0.042 0.2 0.048 0.103 0.139 0.115 0.708 0.018 0.901-0.061 0.127-0.054 0.127 0.061-0.012 0.206-0.23 0.151-0.835-0.079-0.986-0.109-0.079-0.212-0.054-0.339 0.073z"></path>
<path d="M11.784 21.898c0.024 0.46 0.018 0.484-0.115 0.538-0.121 0.048-0.091 0.061 0.157 0.054 0.169 0 0.254-0.012 0.2-0.030-0.091-0.024-0.109-0.103-0.109-0.538 0-0.369-0.018-0.508-0.079-0.508-0.054 0-0.067 0.121-0.054 0.484z"></path>
<path d="M9.933 21.759l-0.012 0.26-0.254 0.006-0.26 0.012 0.242 0.036c0.236 0.036 0.242 0.048 0.278 0.308l0.036 0.272 0.006-0.284 0.012-0.284 0.26-0.024 0.254-0.024-0.254-0.006c-0.254-0.012-0.254-0.012-0.278-0.272l-0.024-0.254-0.006 0.254z"></path>
<path d="M8.426 23.211c0.823 0.012 2.166 0.012 2.994 0 0.823-0.006 0.145-0.012-1.5-0.012s-2.323 0.006-1.494 0.012z"></path>
<path d="M9.945 24.057c-0.151 0.327-0.321 0.69-0.369 0.805l-0.091 0.212-0.151-0.327c-0.169-0.393-0.169-0.393-0.26-0.339-0.042 0.030-0.048 0.061-0.018 0.085 0.030 0.018 0.133 0.2 0.224 0.399l0.169 0.363 0.823-1.718 0.417-0.024 0.411-0.018-0.877-0.024-0.278 0.587z"></path>
<path d="M10.453 23.906c-0.133 0.103-0.163 0.302-0.054 0.339 0.060 0.018 0.073-0.012 0.042-0.127-0.030-0.127-0.012-0.163 0.097-0.2 0.091-0.024 0.151-0.006 0.212 0.073 0.127 0.175 0.091 0.302-0.194 0.659l-0.272 0.333h0.333c0.309 0 0.333-0.012 0.327-0.139 0-0.073-0.018-0.097-0.036-0.061-0.012 0.042-0.127 0.079-0.242 0.079h-0.218l0.254-0.272c0.284-0.308 0.321-0.52 0.115-0.659-0.163-0.115-0.236-0.121-0.363-0.024z"></path>
<path d="M18.958 9.316c0 0.484 0.012 0.678 0.018 0.436 0.012-0.236 0.012-0.635 0-0.877-0.006-0.236-0.018-0.042-0.018 0.442z"></path>
<path d="M20.265 8.56c0 0.018 0.067 0.194 0.151 0.393l0.151 0.363-0.151 0.375c-0.206 0.502-0.139 0.526 0.085 0.030l0.181-0.405-0.181-0.393c-0.169-0.351-0.236-0.46-0.236-0.363z"></path>
<path d="M19.672 9.243c-0.012 0.387-0.024 0.442-0.115 0.423-0.085-0.012-0.115-0.097-0.139-0.321-0.024-0.248-0.054-0.302-0.145-0.302-0.067 0-0.127 0.042-0.139 0.091-0.024 0.079-0.018 0.079 0.036 0s0.067-0.079 0.091 0c0.018 0.048 0.042 0.188 0.048 0.302 0.012 0.151 0.054 0.23 0.157 0.272 0.079 0.036 0.133 0.109 0.133 0.194s0.036 0.139 0.091 0.139c0.048 0 0.091-0.054 0.091-0.121 0-0.060 0.067-0.181 0.151-0.266 0.109-0.115 0.151-0.218 0.151-0.399 0-0.139-0.030-0.242-0.067-0.242-0.048 0-0.061 0.085-0.036 0.236 0.030 0.248-0.085 0.508-0.181 0.411-0.024-0.030-0.067-0.236-0.085-0.454l-0.036-0.405-0.006 0.442z"></path>
<path d="M18.147 10.435c0 0.115 0.030 0.212 0.061 0.212 0.036 0 0.061-0.097 0.061-0.212s-0.024-0.212-0.061-0.212c-0.030 0-0.061 0.097-0.061 0.212z"></path>
<path d="M13.671 11.1c0 0.091 0.157 0.121 0.327 0.054s0.103-0.145-0.115-0.145c-0.145 0-0.212 0.030-0.212 0.091z"></path>
<path d="M14.518 11.064c0 0.054 0.2 0.127 0.351 0.127 0.036 0 0.073-0.042 0.073-0.091 0-0.060-0.067-0.091-0.212-0.091-0.115 0-0.212 0.024-0.212 0.054z"></path>
<path d="M18.147 11.282c0 0.115 0.030 0.212 0.061 0.212 0.036 0 0.061-0.097 0.061-0.212s-0.024-0.212-0.061-0.212c-0.030 0-0.061 0.097-0.061 0.212z"></path>
<path d="M15.389 11.197c-0.042 0.079-0.042 0.079 0.206 0.163 0.157 0.054 0.194 0.048 0.194-0.018 0-0.103-0.345-0.23-0.399-0.145z"></path>
<path d="M18.147 12.189c0 0.115 0.030 0.212 0.061 0.212 0.036 0 0.061-0.097 0.061-0.212s-0.024-0.212-0.061-0.212c-0.030 0-0.061 0.097-0.061 0.212z"></path>
<path d="M14.252 12.352c-0.188 0.26-0.067 0.895 0.163 0.895 0.054 0 0.048-0.018-0.006-0.048-0.042-0.030-0.091-0.151-0.115-0.272-0.030-0.218-0.030-0.224 0.157-0.224 0.169 0 0.188 0.018 0.188 0.2 0 0.109-0.036 0.236-0.073 0.278-0.067 0.067-0.060 0.079 0.012 0.054 0.121-0.036 0.242-0.284 0.242-0.502s-0.121-0.466-0.242-0.502c-0.073-0.024-0.079-0.012-0.012 0.054 0.036 0.042 0.073 0.139 0.073 0.218 0 0.115-0.030 0.139-0.181 0.139-0.2 0-0.212-0.030-0.121-0.266 0.073-0.194 0.036-0.2-0.085-0.024z"></path>
<path d="M18.147 13.036c0 0.115 0.030 0.212 0.061 0.212 0.036 0 0.061-0.097 0.061-0.212s-0.024-0.212-0.061-0.212c-0.030 0-0.061 0.097-0.061 0.212z"></path>
<path d="M17.543 13.665c0 0.030 0.127 0.079 0.29 0.103 0.23 0.042 0.29 0.079 0.302 0.194 0.024 0.175 0.121 0.175 0.145-0.006 0.012-0.097 0.054-0.127 0.157-0.115 0.085 0.012 0.133-0.012 0.133-0.067 0-0.060-0.109-0.097-0.369-0.127-0.502-0.048-0.659-0.048-0.659 0.018z"></path>
<path d="M19.599 13.907c0 0.054 0.097 0.085 0.575 0.157 0.133 0.018 0.29 0.048 0.351 0.067s0.103 0 0.103-0.054c0-0.060-0.127-0.109-0.417-0.157-0.508-0.079-0.611-0.085-0.611-0.012z"></path>
<path d="M21.668 14.276c0.012 0.042 0.212 0.127 0.442 0.188 0.496 0.127 0.575 0.133 0.575 0.054 0-0.054-0.405-0.188-0.841-0.272-0.145-0.030-0.194-0.024-0.175 0.030z"></path>
<path d="M18.147 14.79c0 0.115 0.030 0.212 0.061 0.212 0.036 0 0.061-0.097 0.061-0.212s-0.024-0.212-0.061-0.212c-0.030 0-0.061 0.097-0.061 0.212z"></path>
<path d="M23.688 14.869c-0.024 0.042 0.248 0.181 0.859 0.417 0.036 0.018 0.073 0 0.073-0.042 0-0.036-0.175-0.145-0.393-0.248-0.417-0.188-0.49-0.206-0.538-0.127z"></path>
<path d="M18.147 15.637c0 0.115 0.030 0.212 0.061 0.212 0.036 0 0.061-0.097 0.061-0.212s-0.024-0.212-0.061-0.212c-0.030 0-0.061 0.097-0.061 0.212z"></path>
<path d="M31.552 15.625c0.018 0.060 0.054 0.091 0.073 0.073s0-0.067-0.042-0.109c-0.061-0.054-0.067-0.048-0.030 0.036z"></path>
<path d="M35.242 15.625c0.018 0.060 0.054 0.091 0.073 0.073s0-0.067-0.042-0.109c-0.060-0.054-0.067-0.048-0.030 0.036z"></path>
<path d="M30.905 15.831c-0.061 0.169-0.030 0.532 0.054 0.587 0.024 0.012 0.042-0.151 0.042-0.363s-0.006-0.387-0.018-0.387c-0.006 0-0.042 0.073-0.079 0.163z"></path>
<path d="M31.244 16.061c0 0.333 0.012 0.381 0.079 0.29 0.079-0.109 0.097-0.43 0.036-0.587-0.073-0.194-0.115-0.085-0.115 0.296z"></path>
<path d="M34.71 15.71c0.042 0.018 0.073 0.151 0.073 0.351s-0.030 0.333-0.073 0.351c-0.042 0.018 0.018 0.030 0.133 0.030s0.175-0.012 0.139-0.030c-0.054-0.018-0.079-0.157-0.079-0.387 0-0.333-0.012-0.357-0.133-0.351-0.079 0-0.103 0.018-0.060 0.036z"></path>
<path d="M31.637 15.819c0 0.030 0.030 0.103 0.061 0.151s0.061 0.060 0.061 0.030c0-0.036-0.030-0.103-0.061-0.151s-0.061-0.067-0.061-0.030z"></path>
<path d="M32.732 15.921c-0.006 0.133-0.036 0.163-0.2 0.188l-0.2 0.024 0.194 0.006c0.169 0.012 0.194 0.036 0.218 0.206l0.024 0.2 0.006-0.194c0.012-0.169 0.036-0.194 0.212-0.218l0.194-0.024-0.194-0.006c-0.157-0.012-0.194-0.042-0.218-0.181l-0.024-0.163-0.012 0.163z"></path>
<path d="M35.327 15.819c0 0.030 0.030 0.103 0.060 0.151s0.060 0.060 0.060 0.030c0-0.036-0.030-0.103-0.060-0.151s-0.060-0.067-0.060-0.030z"></path>
<path d="M33.706 16.085c-0.042 0.115-0.073 0.248-0.067 0.302 0 0.054 0.042-0.012 0.091-0.139 0.048-0.133 0.079-0.272 0.067-0.302-0.012-0.036-0.054 0.030-0.091 0.139z"></path>
<path d="M31.734 16.181c-0.054 0.157-0.042 0.194 0.030 0.073 0.036-0.061 0.054-0.127 0.036-0.139-0.012-0.018-0.042 0.012-0.067 0.067z"></path>
<path d="M35.424 16.181c-0.054 0.157-0.042 0.194 0.030 0.073 0.036-0.061 0.054-0.127 0.036-0.139-0.012-0.018-0.042 0.012-0.067 0.067z"></path>
<path d="M28.673 16.236c0 0.018 0.097 0.188 0.212 0.381 0.127 0.212 0.212 0.43 0.212 0.544 0 0.109 0.030 0.2 0.061 0.2 0.036 0 0.061-0.103 0.061-0.23 0-0.151 0.073-0.333 0.212-0.557 0.139-0.212 0.188-0.339 0.145-0.357-0.079-0.024-0.139 0.048-0.315 0.363l-0.109 0.194-0.175-0.284c-0.097-0.151-0.206-0.278-0.242-0.278-0.030 0-0.061 0.012-0.061 0.024z"></path>
<path d="M31.613 16.484c-0.054 0.157-0.042 0.194 0.030 0.073 0.036-0.061 0.054-0.127 0.036-0.139-0.012-0.018-0.042 0.012-0.067 0.067z"></path>
<path d="M35.303 16.484c-0.054 0.157-0.042 0.194 0.030 0.073 0.036-0.061 0.054-0.127 0.036-0.139-0.012-0.018-0.042 0.012-0.067 0.067z"></path>
<path d="M31.776 16.98c0.726 0.012 1.899 0.012 2.601 0 0.708-0.006 0.115-0.012-1.319-0.012-1.428 0-2.008 0.006-1.282 0.012z"></path>
<path d="M33.252 17.222c-0.018 0.030 0.097 0.042 0.248 0.030 0.442-0.030 0.496-0.061 0.121-0.067-0.188 0-0.357 0.012-0.369 0.036z"></path>
<path d="M33.591 17.549c0.133 0.079 0.133 0.284 0 0.478l-0.097 0.151 0.157-0.145c0.242-0.218 0.194-0.557-0.073-0.55-0.079 0.006-0.079 0.012 0.012 0.067z"></path>
<path d="M33.373 17.585c-0.060 0.061-0.048 0.2 0.012 0.2 0.036 0 0.054-0.054 0.048-0.121-0.006-0.139-0.006-0.133-0.060-0.079z"></path>
<path d="M32.883 17.954l-0.169 0.345-0.115-0.23c-0.181-0.345-0.242-0.266-0.073 0.091l0.151 0.321 0.212-0.417c0.115-0.224 0.2-0.423 0.188-0.436s-0.103 0.133-0.194 0.327z"></path>
<path d="M33.361 18.268c-0.024 0.036 0.060 0.061 0.206 0.061 0.139 0 0.248-0.030 0.248-0.061 0-0.036-0.091-0.061-0.206-0.061s-0.23 0.024-0.248 0.061z"></path>
<path d="M12.727 30.548c0 0.484 0.012 0.677 0.018 0.436 0.012-0.236 0.012-0.635 0-0.877-0.006-0.236-0.018-0.042-0.018 0.442z"></path>
<path d="M13.889 30.125c0.181 0.448 0.181 0.466 0 0.877-0.085 0.181-0.127 0.333-0.103 0.333s0.121-0.175 0.218-0.393l0.163-0.393-0.169-0.393c-0.218-0.496-0.309-0.52-0.109-0.030z"></path>
<path d="M13.242 29.986c0 0.030 0 0.242 0.006 0.484 0.006 0.369-0.006 0.436-0.103 0.46-0.060 0.018 0.012 0.030 0.163 0.036 0.212 0 0.248-0.012 0.169-0.061-0.091-0.048-0.109-0.145-0.109-0.508 0-0.26-0.024-0.454-0.060-0.454-0.030 0-0.060 0.018-0.067 0.042z"></path>
</svg>
