<!-- Generated by IcoMoon.io -->
<svg version="1.1" xmlns="http://www.w3.org/2000/svg" width="53" height="32" viewBox="0 0 53 32">
<title>px-CNOT_gatesvg</title>
<path d="M25.348 2.567c-1.22 0.318-2.233 1.447-2.381 2.658l-0.029 0.232h-20.167v0.62h20.159l0.066 0.298c0.091 0.422 0.215 0.723 0.409 1.029 0.566 0.872 1.282 1.344 2.365 1.546l0.112 0.021v7.81l-0.132 0.021c-0.074 0.012-0.248 0.033-0.384 0.045-1.455 0.153-2.956 0.934-3.957 2.063-0.926 1.046-1.521 2.394-1.633 3.684l-0.025 0.31h-16.98v0.62h16.98l0.025 0.322c0.087 1.12 0.558 2.315 1.315 3.316 1.286 1.707 3.481 2.683 5.602 2.485 2.104-0.19 3.742-1.17 4.883-2.906 0.562-0.856 0.93-1.906 1.029-2.919l0.029-0.298h16.939v-0.62h-16.943l-0.029-0.281c-0.182-1.794-1.12-3.473-2.563-4.581-0.752-0.579-1.918-1.050-2.902-1.174-0.198-0.025-0.426-0.054-0.496-0.066l-0.136-0.021v-7.81l0.095-0.017c0.657-0.136 0.939-0.244 1.368-0.533 0.752-0.504 1.261-1.298 1.41-2.191l0.025-0.153h20.172v-0.62h-20.163l-0.050-0.289c-0.207-1.249-1.166-2.282-2.419-2.605-0.442-0.112-1.162-0.112-1.592 0.004zM27.456 17.55c0.471 0.095 0.967 0.277 1.459 0.529 1.257 0.641 2.348 1.91 2.795 3.25 0.149 0.442 0.289 1.12 0.289 1.389v0.186h-5.499v-5.482l0.306 0.029c0.165 0.017 0.459 0.062 0.649 0.099zM25.881 20.176v2.729h-5.507l0.029-0.314c0.128-1.389 0.926-2.902 2.005-3.799 0.583-0.484 1.215-0.839 1.922-1.075 0.422-0.145 1.009-0.26 1.315-0.265l0.236-0.004v2.729zM25.881 26.274v2.749h-0.157c-0.269 0-1.001-0.149-1.41-0.285-2.038-0.682-3.527-2.443-3.874-4.589-0.033-0.198-0.058-0.418-0.058-0.492v-0.132h5.499v2.749zM31.992 23.843c-0.211 2.096-1.612 3.977-3.551 4.763-0.587 0.236-1.36 0.418-1.778 0.418h-0.161v-5.499h5.524l-0.033 0.318z"></path>
</svg>
