<!-- Generated by IcoMoon.io -->
<svg version="1.1" xmlns="http://www.w3.org/2000/svg" width="32" height="32" viewBox="0 0 32 32">
<title>px-Greek_uc_psisvg</title>
<path d="M4.107 3.541v0.296l0.101 0.016c0.699 0.117 1.067 0.424 1.229 1.027 0.128 0.475 0.179 1.093 0.203 2.493 0.021 1.301 0.077 2.051 0.216 2.88 0.184 1.099 0.475 1.891 0.939 2.547 0.347 0.491 0.984 1.072 1.603 1.467 1.187 0.749 2.939 1.208 4.949 1.293 0.205 0.008 0.448 0.021 0.541 0.029l0.165 0.016v2.509c0 3.731-0.040 4.405-0.291 4.939-0.187 0.403-0.643 0.725-1.243 0.88-0.291 0.075-0.635 0.12-1.168 0.152l-0.528 0.032 0.008 0.283 0.008 0.28 9.4 0.013v-0.579l-0.416-0.019c-0.888-0.037-1.424-0.16-1.888-0.432-0.44-0.259-0.696-0.619-0.776-1.091-0.096-0.576-0.101-0.784-0.112-3.885l-0.011-3.083 0.168-0.016c0.093-0.008 0.331-0.021 0.528-0.029 0.44-0.019 1.037-0.077 1.533-0.149 1.997-0.288 3.536-0.987 4.587-2.083 0.616-0.643 0.973-1.325 1.224-2.344 0.229-0.931 0.363-2.189 0.363-3.424 0-1.147 0.075-2.173 0.189-2.624 0.155-0.616 0.501-0.944 1.112-1.061l0.245-0.045v-0.584l-0.395 0.016c-1.797 0.075-2.989 0.723-3.64 1.984-0.437 0.848-0.659 1.835-0.739 3.288-0.152 2.84-0.432 3.845-1.293 4.664-0.851 0.808-1.864 1.171-3.408 1.221l-0.475 0.016 0.011-4.011c0.011-4.184 0.013-4.315 0.128-4.891 0.067-0.331 0.171-0.533 0.381-0.741 0.443-0.435 1.141-0.651 2.296-0.704l0.387-0.016v-0.579l-9.4 0.013v0.56l0.373 0.019c0.787 0.043 1.371 0.152 1.744 0.328 0.547 0.261 0.837 0.608 0.947 1.133 0.131 0.635 0.147 1.293 0.149 5.424v3.464l-0.472-0.016c-1.221-0.040-2.155-0.288-2.851-0.757-0.635-0.429-1.075-0.931-1.325-1.512-0.261-0.605-0.435-1.744-0.525-3.443-0.032-0.629-0.067-1.016-0.123-1.4-0.205-1.416-0.771-2.579-1.563-3.211-0.608-0.488-1.531-0.768-2.736-0.832l-0.352-0.019v0.296z"></path>
</svg>
