<!-- Generated by IcoMoon.io -->
<svg version="1.1" xmlns="http://www.w3.org/2000/svg" width="76" height="32" viewBox="0 0 76 32">
<title>px-Hadamard_gatesvg</title>
<path d="M23.101 3.124c0 0.104-0.066 0.189-0.142 0.189-0.123 0-0.142 0.748-0.142 6.154v6.154h-19.503v0.757h19.503v6.154c0 5.406 0.019 6.154 0.142 6.154 0.076 0 0.142 0.085 0.142 0.189 0 0.189 0.066 0.189 15.053 0.189s15.053 0 15.053-0.189c0-0.104 0.066-0.189 0.142-0.189 0.123 0 0.142-0.748 0.142-6.154v-6.154h19.503v-0.757h-19.503v-6.154c0-5.406-0.019-6.154-0.142-6.154-0.076 0-0.142-0.085-0.142-0.189 0-0.189-0.066-0.189-15.053-0.189s-15.053 0-15.053 0.189zM52.781 16v12.355h-29.254l-0.028-12.26c-0.009-6.741 0-12.317 0.028-12.383 0.028-0.095 3.011-0.114 14.646-0.095l14.608 0.028v12.355z"></path>
<path d="M33.25 9.335c-0.076 0.057-0.123 0.18-0.095 0.284 0.028 0.151 0.142 0.189 0.795 0.237 0.814 0.057 0.985 0.114 0.985 0.312 0 0.076-0.634 2.698-1.411 5.832-1.079 4.374-1.458 5.756-1.609 5.898-0.161 0.161-0.35 0.208-1.051 0.237-0.738 0.038-0.871 0.066-0.956 0.227-0.066 0.123-0.066 0.227-0.009 0.284s1.202 0.095 2.821 0.095c2.338 0.009 2.736-0.009 2.821-0.133 0.199-0.312 0-0.454-0.644-0.454-0.729 0-1.098-0.123-1.098-0.35 0-0.095 0.312-1.43 0.691-2.963l0.682-2.793 3.011-0.028c2.651-0.019 3.001 0 3.001 0.123 0 0.161-1.174 4.904-1.335 5.425-0.133 0.417-0.54 0.587-1.392 0.587-0.71 0-0.994 0.161-0.814 0.445 0.076 0.123 0.464 0.142 2.821 0.142 1.695 0 2.764-0.038 2.821-0.095 0.047-0.047 0.076-0.17 0.057-0.265-0.028-0.151-0.151-0.189-0.862-0.227-0.852-0.057-1.060-0.151-0.966-0.473 0.019-0.076 0.663-2.651 1.43-5.718 1.051-4.204 1.449-5.633 1.6-5.813 0.18-0.208 0.303-0.246 1.098-0.293 0.88-0.057 0.89-0.057 0.918-0.322 0.019-0.142-0.009-0.256-0.066-0.256s-1.278-0.009-2.708-0.009c-1.43 0-2.66 0.009-2.736 0.009-0.161 0-0.256 0.227-0.189 0.426 0.047 0.104 0.208 0.142 0.606 0.142 0.71 0 1.108 0.085 1.174 0.246 0.028 0.076-0.237 1.297-0.587 2.717l-0.644 2.575-3.001 0.028c-2.367 0.019-3.001 0-3.001-0.095 0-0.066 0.284-1.25 0.634-2.613 0.54-2.149 0.663-2.518 0.852-2.651 0.142-0.085 0.549-0.161 1.051-0.199 0.814-0.057 0.824-0.057 0.852-0.322 0.019-0.142 0-0.256-0.047-0.256-1.941-0.057-5.387-0.028-5.501 0.057z"></path>
</svg>
