<!-- Generated by IcoMoon.io -->
<svg version="1.1" xmlns="http://www.w3.org/2000/svg" width="32" height="32" viewBox="0 0 32 32">
<title>px-Qiskit-Logosvg</title>
<path d="M15.24 0.016c-1.696 0.099-3.131 0.379-4.587 0.896-3.011 1.072-5.613 3.003-7.539 5.595-1.576 2.12-2.619 4.693-2.968 7.323-0.093 0.712-0.12 1.051-0.139 1.811-0.064 2.717 0.595 5.477 1.875 7.859 2.464 4.576 6.925 7.661 12.051 8.328 0.885 0.115 2.296 0.157 3.173 0.093 2.776-0.205 5.437-1.117 7.733-2.653 3.811-2.547 6.368-6.632 6.971-11.136 0.139-1.029 0.179-2.411 0.096-3.429-0.28-3.467-1.672-6.725-3.987-9.328-0.32-0.357-1.096-1.131-1.44-1.429-1.864-1.627-4.099-2.808-6.467-3.424-1.349-0.352-2.744-0.528-4.107-0.515-0.293 0.003-0.592 0.008-0.667 0.011zM12.672 1.093c-0.456 0.227-0.656 0.472-0.656 0.8 0 0.221 0.061 0.341 0.272 0.539 0.579 0.533 2.144 0.856 3.965 0.813 0.928-0.021 1.56-0.099 2.24-0.272 0.728-0.187 1.224-0.469 1.384-0.792 0.2-0.403-0.024-0.808-0.608-1.101-0.133-0.067-0.229-0.12-0.216-0.12 0.067 0 1.048 0.253 1.4 0.36 2.944 0.896 5.611 2.717 7.541 5.155 0.12 0.152 0.219 0.28 0.219 0.288 0 0.005-0.133-0.056-0.296-0.139-1.789-0.896-4.891-1.563-8.424-1.811-2.696-0.187-5.68-0.139-8.147 0.133-0.189 0.021-0.365 0.040-0.387 0.040-0.024 0-0.061-0.048-0.085-0.12-0.115-0.304-0.443-0.656-0.757-0.811-0.605-0.296-1.309-0.176-1.787 0.301-0.283 0.283-0.427 0.611-0.469 1.064-0.008 0.075-0.008 0.075-0.675 0.245-1.779 0.448-2.808 0.883-3.781 1.587-0.077 0.056 0.355-0.533 0.704-0.96 1.589-1.941 3.581-3.437 5.891-4.427 0.845-0.363 1.707-0.635 2.813-0.888 0.133-0.032 0.107-0.011-0.141 0.115zM16.8 1.2c0.963 0.067 1.835 0.248 2.267 0.467 0.139 0.072 0.24 0.16 0.24 0.211 0 0.147-0.592 0.397-1.259 0.536-1.787 0.368-4.373 0.181-5.28-0.381-0.141-0.088-0.136-0.165 0.013-0.267 0.416-0.28 1.381-0.504 2.485-0.573 0.323-0.021 1.179-0.016 1.533 0.008zM18.067 5.387c4.587 0.195 8.413 1.008 10.155 2.16 0.963 0.635 1.109 1.237 0.464 1.88-0.973 0.968-3.541 1.792-6.979 2.24l-0.52 0.067-0.587-0.053c-1.595-0.144-2.981-0.195-5.040-0.184l-1.624 0.011-1.661-2.499c-0.915-1.376-1.661-2.504-1.661-2.509 0-0.008 0.053-0.091 0.12-0.189 0.109-0.163 0.227-0.461 0.227-0.576 0-0.027 0.016-0.059 0.035-0.075 0.077-0.061 2.112-0.227 3.499-0.28 0.525-0.021 3.016-0.016 3.573 0.008zM8.083 6.245c0.032 0.064 0.149 0.205 0.261 0.315 0.227 0.224 0.445 0.347 0.744 0.416 0.229 0.056 0.624 0.037 0.837-0.040l0.152-0.051 1.544 2.323c0.851 1.28 1.544 2.328 1.539 2.333-0.003 0.005-0.269 0.024-0.589 0.045-0.323 0.021-0.811 0.059-1.091 0.083l-0.507 0.043-0.52-0.069c-3.403-0.461-5.963-1.312-6.861-2.283-0.448-0.483-0.437-0.933 0.029-1.408 0.544-0.549 1.579-1.045 3.125-1.501 0.237-0.069 1.2-0.312 1.245-0.315 0.019-0.003 0.059 0.048 0.091 0.109zM2.667 9.080c0.376 1.149 2.176 2.107 5.227 2.773 0.301 0.067 0.576 0.128 0.613 0.136 0.043 0.011-0.157 0.056-0.533 0.12-0.789 0.133-1.536 0.288-2.24 0.464-2.685 0.669-4.373 1.549-4.995 2.6-0.083 0.141-0.083 0.149-0.045-0.349 0.16-2.075 0.763-4.173 1.717-5.971l0.189-0.357 0.016 0.237c0.008 0.133 0.029 0.288 0.051 0.347zM30.043 9.885c0.525 1.205 0.917 2.573 1.104 3.872 0.067 0.467 0.133 1.155 0.133 1.373v0.163l-0.096-0.165c-0.317-0.536-0.907-1.003-1.864-1.475-1.229-0.605-2.891-1.099-4.992-1.48-0.365-0.067-0.68-0.125-0.701-0.128-0.021-0.005 0.032-0.024 0.12-0.040 2.672-0.536 4.44-1.219 5.333-2.064 0.24-0.227 0.456-0.52 0.536-0.728l0.048-0.125 0.117 0.235c0.067 0.131 0.184 0.384 0.261 0.563zM11.56 12.427c0.579 0.059 1.435 0.125 1.957 0.155l0.36 0.019 2.237 3.368c1.229 1.853 2.232 3.373 2.227 3.379-0.003 0.003-0.325-0.005-0.715-0.019-0.784-0.029-2.995-0.011-3.76 0.032-0.787 0.043-1.592 0.104-2.267 0.171-0.493 0.051-0.672 0.059-0.84 0.040-1.283-0.147-1.645-0.195-2.48-0.333-2.555-0.421-4.627-1.053-5.853-1.787-0.603-0.36-0.968-0.701-1.155-1.077-0.077-0.155-0.085-0.197-0.085-0.4 0.003-0.328 0.096-0.515 0.437-0.856 0.28-0.28 0.467-0.419 0.869-0.651 1.501-0.864 4.2-1.587 7.36-1.973 1.139-0.139 1.051-0.136 1.707-0.067zM21.893 12.467c3.592 0.432 6.405 1.216 7.907 2.203 0.381 0.251 0.736 0.605 0.867 0.861 0.088 0.173 0.093 0.203 0.093 0.443 0 0.237-0.005 0.267-0.091 0.44-0.125 0.253-0.504 0.632-0.883 0.883-1.523 1.011-4.549 1.832-8.248 2.237-0.347 0.037-0.4 0.037-0.88-0.011-0.283-0.029-0.728-0.069-0.989-0.085-0.373-0.027-0.485-0.043-0.512-0.075-0.029-0.035-4.381-6.581-4.445-6.688-0.016-0.027 0.272-0.035 1.387-0.035 1.867 0 3.469-0.072 4.661-0.211 0.328-0.040 0.573-0.029 1.133 0.037zM0.995 17.139c0.677 0.843 2.395 1.661 4.672 2.232 0.792 0.197 1.723 0.389 2.56 0.523 0.189 0.032 0.349 0.061 0.352 0.064s-0.104 0.027-0.24 0.053c-1.472 0.28-2.981 0.757-3.949 1.248-1.144 0.581-1.723 1.219-1.773 1.955l-0.016 0.24-0.184-0.344c-0.955-1.784-1.557-3.88-1.723-5.987-0.037-0.499-0.040-0.488 0.067-0.312 0.051 0.085 0.157 0.235 0.235 0.328zM31.253 17.24c-0.152 1.853-0.621 3.592-1.44 5.333l-0.136 0.293-0.101-0.205c-0.544-1.104-2.432-2.008-5.496-2.635-0.328-0.067-0.472-0.107-0.427-0.117 0.037-0.008 0.216-0.040 0.4-0.069 1.685-0.277 3.469-0.755 4.68-1.253 1.208-0.499 2.112-1.149 2.469-1.779l0.064-0.115 0.008 0.088c0.005 0.045-0.003 0.253-0.021 0.459zM11.653 20.307c2.256 0.179 4.947 0.219 7.093 0.104l0.307-0.019 1.547 2.328c0.851 1.28 1.549 2.339 1.555 2.349 0.005 0.013-0.027 0.075-0.069 0.136-0.197 0.288-0.299 0.589-0.299 0.893 0 0.195 0.061 0.171-0.627 0.245-1.909 0.211-3.504 0.285-5.547 0.261-1.656-0.021-2.595-0.072-4.040-0.221-3.347-0.344-6.040-1.053-7.44-1.96-0.325-0.211-0.683-0.565-0.787-0.781-0.171-0.352-0.075-0.725 0.277-1.083 0.856-0.864 2.965-1.619 5.829-2.091 0.472-0.077 1.181-0.179 1.493-0.211 0.045-0.005 0.109-0.005 0.147 0s0.288 0.027 0.56 0.048zM22.107 20.347c3.768 0.541 6.379 1.531 6.899 2.613 0.392 0.813-0.755 1.728-3.080 2.456-0.523 0.163-1.051 0.299-1.072 0.272-0.008-0.011-0.040-0.077-0.064-0.149-0.107-0.288-0.379-0.6-0.664-0.763-0.411-0.235-0.933-0.269-1.389-0.093-0.032 0.011-0.411-0.539-1.48-2.155-0.792-1.192-1.429-2.171-1.416-2.176s0.261-0.032 0.552-0.059c0.661-0.061 0.987-0.053 1.715 0.053zM3.787 24.965c1.552 1.043 4.853 1.856 8.747 2.155 1.243 0.093 1.611 0.109 3.12 0.125 2.373 0.024 3.861-0.056 6.205-0.328 0.133-0.016 0.139-0.016 0.181 0.069 0.075 0.144 0.368 0.411 0.563 0.512 0.101 0.053 0.259 0.115 0.347 0.139 0.211 0.053 0.584 0.053 0.795 0 0.355-0.091 0.696-0.339 0.907-0.656 0.096-0.141 0.227-0.467 0.229-0.56 0-0.029 0.035-0.053 0.099-0.072 1.349-0.347 2.021-0.576 2.805-0.952 0.227-0.109 0.413-0.195 0.419-0.192 0.011 0.013-0.536 0.683-0.813 0.992-0.373 0.419-1.128 1.152-1.536 1.493-1.557 1.301-3.192 2.213-5.080 2.843-0.469 0.157-1.565 0.453-1.675 0.453-0.019 0 0.075-0.056 0.208-0.125 0.163-0.083 0.299-0.176 0.4-0.275 0.192-0.192 0.251-0.331 0.235-0.571-0.008-0.147-0.027-0.195-0.101-0.307-0.352-0.499-1.299-0.821-2.827-0.965-0.432-0.040-1.653-0.040-2.080 0-1.347 0.128-2.269 0.408-2.68 0.813-0.448 0.44-0.293 0.939 0.405 1.307 0.28 0.147 0.248 0.147-0.392-0.013-3.421-0.861-6.435-2.867-8.549-5.691-0.133-0.176-0.269-0.363-0.304-0.413l-0.067-0.093 0.080 0.061c0.045 0.035 0.205 0.147 0.36 0.251zM17.4 29.437c0.749 0.099 1.264 0.227 1.635 0.405 0.275 0.133 0.325 0.208 0.205 0.309-0.203 0.163-0.669 0.333-1.229 0.448-0.68 0.139-0.963 0.16-2.037 0.16-1.080 0-1.381-0.024-2.080-0.165-0.693-0.139-1.227-0.363-1.227-0.515 0-0.224 1.088-0.568 2.107-0.664 0.168-0.016 0.355-0.035 0.413-0.040s0.491-0.005 0.96-0.003c0.659 0.008 0.944 0.021 1.253 0.064z"></path>
</svg>
