<!-- Generated by IcoMoon.io -->
<svg version="1.1" xmlns="http://www.w3.org/2000/svg" width="40" height="32" viewBox="0 0 40 32">
<title>px-Qcircuit_CYsvg</title>
<path d="M18.671 1.481c-0.238 0.212-0.423 0.529-0.423 0.661s-3.385 0.238-8.331 0.238c-5.369 0-8.331 0.106-8.331 0.264s2.909 0.264 8.172 0.264h8.172l1.64 1.64v14.493h-6.083v5.554l-6.003 0.079-6.030 0.053 6.030 0.079 6.003 0.053v5.554h12.562v-5.422l6.083-0.132 6.083-0.159-12.298-0.106v-5.554h-5.818v-14.493l1.64-1.64h8.172c5.395 0 8.145-0.079 8.040-0.264-0.106-0.159-3.147-0.264-8.251-0.264h-8.066l-0.529-0.661c-0.608-0.767-1.798-0.899-2.433-0.238zM25.653 24.727v5.421h-11.636v-10.843h11.636v5.421z"></path>
<path d="M16.979 22.136c0.264 0.053 0.688 0.741 1.005 1.613 0.688 1.798 0.529 3.412-0.344 3.755-0.45 0.185-0.264 0.238 0.741 0.212 0.741 0 1.111-0.053 0.846-0.132-0.291-0.079-0.423-0.264-0.344-0.529 0.079-0.212 0.159-0.608 0.159-0.873 0-0.608 2.539-3.676 3.279-3.967 0.476-0.185 0.423-0.238-0.317-0.238-0.529-0.026-0.82 0.079-0.714 0.238 0.185 0.291-1.719 2.671-2.010 2.512-0.106-0.079-0.37-0.661-0.582-1.296-0.291-0.873-0.317-1.217-0.106-1.322 0.185-0.053-0.212-0.106-0.873-0.106s-0.979 0.053-0.741 0.132z"></path>
</svg>
