<!-- Generated by IcoMoon.io -->
<svg version="1.1" xmlns="http://www.w3.org/2000/svg" width="37" height="32" viewBox="0 0 37 32">
<title>px-Toffoli_gatesvg</title>
<path d="M17.89 2.652c-0.285 0.062-0.728 0.279-0.954 0.468-0.431 0.362-0.728 0.892-0.809 1.44l-0.022 0.149h-14.154v0.434h14.157l0.015 0.084c0.087 0.428 0.223 0.734 0.468 1.059 0.304 0.403 0.812 0.725 1.317 0.833l0.26 0.059 0.009 1.84 0.006 1.84-0.27 0.053c-0.378 0.074-0.771 0.273-1.056 0.536-0.372 0.344-0.598 0.743-0.706 1.245l-0.053 0.257h-14.148v0.434h14.151l0.046 0.208c0.142 0.629 0.505 1.152 1.041 1.493 0.26 0.167 0.452 0.239 0.88 0.328l0.084 0.015v5.505l-0.232 0.019c-1.89 0.161-3.535 1.639-3.953 3.553-0.031 0.149-0.068 0.372-0.077 0.493l-0.022 0.22h-11.917v0.434h11.917l0.019 0.232c0.115 1.332 0.926 2.655 2.085 3.398 0.784 0.502 1.849 0.762 2.776 0.678 1.239-0.115 2.28-0.629 3.014-1.487 0.688-0.809 1.004-1.546 1.146-2.676l0.019-0.146h11.926l-0.009-0.211-0.009-0.208-11.908-0.015-0.015-0.102c-0.118-0.812-0.22-1.18-0.471-1.679-0.458-0.911-1.143-1.602-2.023-2.045-0.458-0.229-1.273-0.449-1.667-0.449h-0.133v-5.514l0.087-0.015c0.539-0.112 0.867-0.27 1.202-0.582 0.384-0.356 0.607-0.747 0.706-1.23l0.040-0.201 14.2-0.015-0.009-0.211-0.009-0.208-14.188-0.031-0.022-0.164c-0.115-0.778-0.703-1.49-1.465-1.769-0.136-0.050-0.316-0.099-0.396-0.112l-0.146-0.022v-3.702l0.211-0.037c0.867-0.155 1.633-0.926 1.781-1.79l0.034-0.195 14.191-0.016 0.009-0.211 0.009-0.208h-14.191l-0.012-0.071c-0.068-0.347-0.13-0.545-0.257-0.796-0.26-0.524-0.75-0.939-1.326-1.134-0.313-0.105-0.84-0.13-1.177-0.056zM18.165 21.564c0.009 0.105 0.019 0.97 0.019 1.921v1.732h-3.872v-0.071c0-0.173 0.105-0.681 0.204-0.982 0.412-1.242 1.382-2.209 2.605-2.599 0.313-0.099 0.716-0.183 0.911-0.186l0.112-0.003 0.022 0.189zM19.101 21.421c0.567 0.096 1.128 0.322 1.623 0.651 0.27 0.18 0.75 0.647 0.985 0.96 0.214 0.285 0.539 0.936 0.626 1.261 0.071 0.26 0.155 0.725 0.155 0.852v0.071h-3.872v-3.841h0.105c0.056 0 0.226 0.022 0.378 0.046zM18.184 27.586v1.936h-0.105c-0.186 0-0.647-0.093-0.96-0.192-1.224-0.387-2.19-1.354-2.605-2.605-0.099-0.304-0.201-0.802-0.201-0.988v-0.087h3.872v1.936zM22.477 25.857c-0.071 0.694-0.313 1.348-0.709 1.927-0.229 0.331-0.759 0.855-1.078 1.066-0.313 0.208-0.688 0.384-1.035 0.496-0.263 0.081-0.762 0.177-0.936 0.177h-0.102v-3.872h3.881l-0.022 0.208z"></path>
</svg>
