<!-- Generated by IcoMoon.io -->
<svg version="1.1" xmlns="http://www.w3.org/2000/svg" width="87" height="32" viewBox="0 0 87 32">
<title>Qcircuit_Z</title>
<path d="M49.803 9.967c0.024-0.077 0.060-0.173 0.060-0.286 0-0.167-0.095-0.167-0.477-0.167h-8.020c-0.459 0-0.477 0.018-0.59 0.376l-1.043 3.423c-0.042 0.095-0.060 0.226-0.060 0.268 0 0.018 0 0.209 0.227 0.209 0.173 0 0.209-0.131 0.25-0.191 0.722-2.242 1.712-3.5 4.675-3.5h3.101l-10.626 11.884c-0 0.018-0.078 0.286-0.078 0.34 0 0.173 0.131 0.173 0.477 0.173h8.265c0.459 0 0.477-0.018 0.59-0.382l1.354-4.198c0.018-0.077 0.071-0.209 0.071-0.286 0-0.095-0.071-0.209-0.244-0.209s-0.191 0.077-0.322 0.477c-0.841 2.582-1.753 3.954-4.985 3.954l-3.25-0z"></path>
<path fill="none" stroke="#000" stroke-width="0.7594" stroke-miterlimit="10" stroke-linecap="round" stroke-linejoin="round" d="M56.161 3.801h-25.742"></path>
<path fill="none" stroke="#000" stroke-width="0.7594" stroke-miterlimit="10" stroke-linecap="round" stroke-linejoin="round" d="M30.417 3.801v24.398"></path>
<path fill="none" stroke="#000" stroke-width="0.7594" stroke-miterlimit="10" stroke-linecap="round" stroke-linejoin="round" d="M30.417 28.199h25.742"></path>
<path fill="none" stroke="#000" stroke-width="0.7594" stroke-miterlimit="10" stroke-linecap="round" stroke-linejoin="round" d="M56.161 28.199v-24.398"></path>
<path fill="none" stroke="#000" stroke-width="0.7594" stroke-miterlimit="10" stroke-linecap="round" stroke-linejoin="round" d="M30.417 16h-26.614"></path>
<path fill="none" stroke="#000" stroke-width="0.7594" stroke-miterlimit="10" stroke-linecap="round" stroke-linejoin="round" d="M82.772 16h-26.614"></path>
</svg>
