<!-- Generated by IcoMoon.io -->
<svg version="1.1" xmlns="http://www.w3.org/2000/svg" width="48" height="32" viewBox="0 0 48 32">
<title>quantum-logic-gate-pgf-ti-i-k-i-z-quantum-mechanics-controlled-not-gate-quantum-circuit-png-favpng-1</title>
<path d="M23.396 1.94c-0.598 0.117-1.184 0.504-1.541 1.032-0.193 0.275-0.404 0.832-0.404 1.055v0.135h-19.341v0.469h19.317l0.070 0.346c0.176 0.838 0.996 1.635 1.887 1.829l0.293 0.064-0.012 3.141-0.018 3.147-4.349 0.018c-4.308 0.012-4.355 0.012-4.355 0.129 0 0.076-0.041 0.117-0.117 0.117-0.117 0-0.117 0.041-0.117 3.985v3.985h-12.601v0.469h12.601v3.991c0 3.874 0.006 3.991 0.111 4.020 0.064 0.018 0.123 0.076 0.141 0.141 0.029 0.111 0.223 0.111 8.949 0.111s8.92 0 8.949-0.111c0.018-0.064 0.076-0.123 0.141-0.141 0.105-0.029 0.111-0.147 0.111-4.020v-3.991h12.601v-0.469h-12.601v-3.985c0-3.944 0-3.985-0.117-3.985-0.076 0-0.117-0.041-0.117-0.117 0-0.117-0.047-0.117-4.349-0.129l-4.355-0.018-0.018-3.141-0.012-3.147 0.275-0.064c0.967-0.24 1.706-0.973 1.899-1.881l0.064-0.293h19.329v-0.469h-19.317l-0.1-0.399c-0.123-0.486-0.281-0.756-0.68-1.155-0.586-0.586-1.395-0.832-2.221-0.668zM32.633 21.638l-0.018 7.988h-17.407l-0.012-7.988-0.018-7.982h17.465l-0.012 7.982z"></path>
<path d="M19.915 17.33c-0.029 0.041-0.047 0.117-0.035 0.176 0.018 0.088 0.1 0.111 0.522 0.141 0.557 0.035 0.639 0.064 0.639 0.229 0 0.064-0.305 1.348-0.68 2.854-0.662 2.667-0.68 2.755-0.651 3.241 0.041 0.674 0.205 1.084 0.604 1.518 0.498 0.539 1.108 0.791 1.899 0.779 1.366-0.012 2.673-0.944 3.341-2.385 0.158-0.334 0.363-1.055 0.733-2.52 0.674-2.708 0.779-3.065 0.92-3.27 0.152-0.217 0.498-0.369 0.944-0.422 0.252-0.035 0.352-0.076 0.399-0.158 0.123-0.223 0.006-0.246-1.477-0.252-1.465-0.006-1.553 0.012-1.506 0.246 0.012 0.076 0.094 0.117 0.316 0.141 0.399 0.047 0.621 0.164 0.721 0.369 0.070 0.152 0.029 0.363-0.574 2.755-0.709 2.801-0.85 3.2-1.377 3.856-0.996 1.242-2.69 1.647-3.516 0.832-0.316-0.316-0.416-0.627-0.41-1.284 0-0.545 0.047-0.774 0.692-3.311 0.375-1.5 0.715-2.801 0.75-2.889 0.088-0.229 0.234-0.287 0.82-0.322 0.44-0.023 0.527-0.047 0.58-0.141 0.047-0.082 0.047-0.135 0-0.182-0.094-0.094-3.569-0.094-3.651 0z"></path>
</svg>
