<?xml version="1.0" standalone="no"?>
<!DOCTYPE svg PUBLIC "-//W3C//DTD SVG 20010904//EN"
 "http://www.w3.org/TR/2001/REC-SVG-20010904/DTD/svg10.dtd">
<svg version="1.0" xmlns="http://www.w3.org/2000/svg"
 width="260.000000pt" height="260.000000pt" viewBox="0 0 260.000000 260.000000"
 preserveAspectRatio="xMidYMid meet">
<metadata>
Created by potrace 1.11, written by Peter Selinger 2001-2013
</metadata>
<g transform="translate(0.000000,260.000000) scale(0.100000,-0.100000)"
fill="#000000" stroke="none">
<path d="M771 2346 c-5 -11 -16 -38 -24 -59 -9 -20 -16 -40 -16 -42 0 -3 -11
-36 -25 -73 -13 -37 -47 -130 -75 -207 -27 -77 -95 -265 -150 -418 -110 -305
-131 -387 -126 -492 9 -205 139 -343 366 -391 114 -24 212 -5 316 62 l52 33 7
-32 c31 -144 135 -257 285 -307 168 -58 337 -21 461 100 72 70 105 136 203
410 42 118 89 247 103 285 14 39 27 75 28 80 2 6 23 66 49 135 26 69 50 136
55 150 4 14 24 68 43 121 l35 96 -214 78 c-117 42 -219 75 -226 72 -8 -2 -21
-27 -30 -53 -64 -195 -341 -943 -356 -963 -26 -35 -45 -45 -75 -37 -37 9 -48
35 -36 82 10 38 116 335 284 797 46 125 80 229 76 231 -6 4 -127 48 -306 113
-38 13 -83 29 -98 35 -15 6 -30 8 -33 5 -3 -3 -37 -93 -75 -199 -39 -106 -76
-209 -84 -228 -8 -19 -39 -107 -70 -195 -134 -380 -147 -412 -186 -434 -24
-13 -29 -13 -54 3 -24 16 -27 23 -22 55 4 29 266 776 297 846 12 28 70 190 70
197 0 6 -62 29 -318 122 -122 44 -123 44 -131 22z"/>
</g>
</svg>
