<?xml version="1.0" standalone="no"?>
<!DOCTYPE svg PUBLIC "-//W3C//DTD SVG 20010904//EN"
 "http://www.w3.org/TR/2001/REC-SVG-20010904/DTD/svg10.dtd">
<svg version="1.0" xmlns="http://www.w3.org/2000/svg"
 width="260.000000pt" height="260.000000pt" viewBox="0 0 260.000000 260.000000"
 preserveAspectRatio="xMidYMid meet">
<metadata>
Created by potrace 1.16, written by Peter Selinger 2001-2019
</metadata>
<g transform="translate(0.000000,260.000000) scale(0.100000,-0.100000)"
fill="#000000" stroke="none">
<path d="M691 2498 c-124 -336 -437 -1219 -452 -1276 -29 -110 -29 -256 1
-342 48 -142 152 -237 320 -294 171 -57 318 -40 457 54 29 20 45 26 48 17 2
-6 11 -39 21 -71 50 -166 194 -284 396 -324 108 -21 211 -7 317 43 94 45 192
142 237 235 48 99 487 1321 477 1330 -10 10 -483 180 -499 180 -13 0 -1 33
-245 -645 -198 -551 -215 -586 -272 -571 -42 10 -60 34 -52 72 3 18 100 295
216 615 115 320 208 583 207 585 -9 8 -511 184 -515 180 -3 -3 -99 -265 -213
-582 -115 -318 -217 -589 -228 -603 -26 -35 -80 -40 -107 -11 -17 18 -18 26
-8 63 7 23 104 298 217 612 113 313 202 572 198 576 -10 9 -486 179 -501 179
-6 0 -15 -10 -20 -22z"/>
</g>
</svg>
